<svg width="589" height="7" viewBox="0 0 589 7" fill="none" xmlns="http://www.w3.org/2000/svg">
<path opacity="0.2" d="M589 1.42181C576.957 1.42181 574.058 5.42181 562.228 5.42181C550.399 5.42181 547.499 1.42181 535.456 1.42181C523.413 1.42181 520.514 5.42181 508.684 5.42181C496.855 5.42181 493.955 1.42181 481.912 1.42181C469.869 1.42181 466.97 5.42181 455.14 5.42181C443.311 5.42181 440.411 1.42181 428.369 1.42181C416.326 1.42181 413.426 5.42181 401.597 5.42181C389.767 5.42181 386.868 1.42181 374.825 1.42181C362.782 1.42181 359.882 5.42181 348.053 5.42181C336.223 5.42181 333.324 1.42181 321.281 1.42181C309.238 1.42181 306.338 5.42181 294.509 5.42181C282.679 5.42181 279.78 1.42181 267.737 1.42181C255.694 1.42181 252.795 5.42181 240.965 5.42181C229.136 5.42181 226.236 1.42181 214.193 1.42181C202.15 1.42181 199.251 5.42181 187.421 5.42181C175.592 5.42181 172.692 1.42181 160.649 1.42181C148.606 1.42181 145.707 5.42181 133.877 5.42181C122.048 5.42181 119.148 1.42181 107.105 1.42181C95.0625 1.42181 92.163 5.42181 80.3335 5.42181C68.5041 5.42181 65.6045 1.42181 53.5616 1.42181C41.5187 1.42181 38.6192 5.42181 26.7897 5.42181C14.9425 5.42181 12.0429 1.42181 0 1.42181" stroke="#081630" stroke-width="2" stroke-miterlimit="10"/>
</svg>
