<svg width="49" height="49" viewBox="0 0 49 49" fill="none" xmlns="http://www.w3.org/2000/svg">
<path d="M24.618 49C38.0838 49 49 38.0838 49 24.618C49 11.1523 38.0838 0.236084 24.618 0.236084C11.1523 0.236084 0.236084 11.1523 0.236084 24.618C0.236084 38.0838 11.1523 49 24.618 49Z" fill="#FC5E22"/>
<path d="M24.6179 44.8716C35.8032 44.8716 44.8707 35.8038 44.8707 24.6181C44.8707 13.4323 35.8032 4.3645 24.6179 4.3645C13.4325 4.3645 4.36499 13.4323 4.36499 24.6181C4.36499 35.8038 13.4325 44.8716 24.6179 44.8716Z" fill="black"/>
<path d="M7.54497 21.6831C7.44885 21.547 7.41281 21.3988 7.43283 21.2347C7.45286 21.0705 7.52494 20.9343 7.6491 20.8302L12.0906 16.9901C12.1987 16.9021 12.3108 16.814 12.427 16.7339C12.5431 16.6498 12.6673 16.6097 12.8074 16.6097H14.4054C14.5536 16.6097 14.6857 16.6698 14.7939 16.7899C14.902 16.9101 14.9581 17.0502 14.9581 17.2184V31.7218C14.9581 31.886 14.902 32.0302 14.7939 32.1503C14.6857 32.2704 14.5536 32.3305 14.4054 32.3305H12.7474C12.5952 32.3305 12.467 32.2704 12.3589 32.1503C12.2508 32.0302 12.1947 31.89 12.1947 31.7218V20.63L9.28711 23.1207C9.16296 23.2248 9.03079 23.2648 8.88662 23.2448C8.74244 23.2208 8.61829 23.1447 8.50615 23.0086L7.54497 21.6831Z" fill="white"/>
<path d="M17.3652 27.6575C17.3652 26.8807 17.5134 26.1879 17.8057 25.5793C18.0981 24.9746 18.5266 24.4621 19.0833 24.0416C18.2783 23.2488 17.8778 22.2317 17.8778 20.9864C17.8778 20.2977 18.006 19.669 18.2663 19.1004C18.5266 18.5318 18.8831 18.0433 19.3396 17.6428C19.7962 17.2384 20.3368 16.9261 20.9656 16.7098C21.5944 16.4936 22.2752 16.3855 23.0121 16.3855C23.749 16.3855 24.4299 16.4936 25.0586 16.7098C25.6874 16.9261 26.2281 17.2384 26.6846 17.6428C27.1412 18.0473 27.5016 18.5318 27.758 19.1004C28.0183 19.669 28.1464 20.2977 28.1464 20.9864C28.1464 21.6151 28.0423 22.1837 27.83 22.6922C27.6178 23.2008 27.3214 23.6492 26.941 24.0376C27.4856 24.4581 27.9101 24.9706 28.2105 25.5753C28.5109 26.1799 28.6591 26.8727 28.6591 27.6535C28.6591 28.3863 28.5269 29.055 28.2586 29.6516C27.9942 30.2523 27.6138 30.7648 27.1212 31.1893C26.6286 31.6177 26.0358 31.9501 25.339 32.1903C24.6421 32.4306 23.8652 32.5507 23.0081 32.5507C22.1511 32.5507 21.3701 32.4306 20.6773 32.1903C19.9844 31.9501 19.3877 31.6177 18.8951 31.1893C18.4025 30.7608 18.026 30.2483 17.7577 29.6516C17.4933 29.055 17.3572 28.3863 17.3572 27.6535L17.3652 27.6575ZM20.1286 27.6575C20.1286 28.0019 20.2087 28.3062 20.3729 28.5665C20.5371 28.8267 20.7533 29.047 21.0177 29.2192C21.282 29.3913 21.5904 29.5235 21.9388 29.6116C22.2872 29.6997 22.6437 29.7477 23.0121 29.7477C23.3806 29.7477 23.737 29.7037 24.0854 29.6116C24.4339 29.5235 24.7382 29.3913 25.0066 29.2192C25.2709 29.047 25.4872 28.8307 25.6514 28.5665C25.8156 28.3062 25.8957 28.0019 25.8957 27.6575C25.8957 27.3131 25.8156 27.0128 25.6514 26.7605C25.4872 26.5083 25.2709 26.292 25.0066 26.1199C24.7422 25.9477 24.4339 25.8155 24.0854 25.7274C23.737 25.6393 23.3806 25.5913 23.0121 25.5913C22.6437 25.5913 22.2872 25.6353 21.9388 25.7274C21.5904 25.8195 21.286 25.9477 21.0177 26.1199C20.7533 26.292 20.5371 26.5043 20.3729 26.7605C20.2087 27.0168 20.1286 27.3131 20.1286 27.6575ZM20.6412 20.9904C20.6412 21.2907 20.7053 21.551 20.8375 21.7752C20.9656 21.9995 21.1458 22.1877 21.3701 22.3358C21.5944 22.484 21.8467 22.5961 22.127 22.6722C22.4074 22.7483 22.7037 22.7843 23.0161 22.7843C23.3285 22.7843 23.6089 22.7483 23.8972 22.6722C24.1856 22.5961 24.4379 22.484 24.6662 22.3358C24.8904 22.1877 25.0666 21.9995 25.1988 21.7752C25.327 21.551 25.3951 21.2907 25.3951 20.9904C25.3951 20.6901 25.331 20.4298 25.1988 20.2056C25.0666 19.9813 24.8904 19.7931 24.6662 19.645C24.4419 19.4968 24.1856 19.3847 23.8972 19.3086C23.6089 19.2325 23.3165 19.1965 23.0161 19.1965C22.7158 19.1965 22.4074 19.2325 22.127 19.3086C21.8467 19.3847 21.5944 19.4968 21.3701 19.645C21.1458 19.7931 20.9696 19.9813 20.8375 20.2056C20.7053 20.4298 20.6412 20.6941 20.6412 20.9904Z" fill="white"/>
<path d="M37.2774 26.9166V31.005C37.2774 31.1692 37.2214 31.3133 37.1132 31.4335C37.0051 31.5536 36.873 31.6136 36.7248 31.6136H35.1709C35.0187 31.6136 34.8905 31.5536 34.7824 31.4335C34.6743 31.3133 34.6182 31.1732 34.6182 31.005V26.9166H30.9537C30.8015 26.9166 30.6733 26.8566 30.5652 26.7365C30.4571 26.6163 30.401 26.4762 30.401 26.308V24.8264C30.401 24.6622 30.4571 24.5181 30.5652 24.398C30.6733 24.2778 30.8055 24.2178 30.9537 24.2178H34.6182V20.1534C34.6182 19.9893 34.6743 19.8451 34.7824 19.725C34.8905 19.6049 35.0227 19.5448 35.1709 19.5448H36.7248C36.873 19.5448 37.0051 19.6049 37.1132 19.725C37.2214 19.8451 37.2774 19.9853 37.2774 20.1534V24.2178H40.9219C41.0701 24.2178 41.2023 24.2778 41.3104 24.398C41.4185 24.5181 41.4746 24.6582 41.4746 24.8264V26.308C41.4746 26.4722 41.4185 26.6163 41.3104 26.7365C41.2023 26.8566 41.0701 26.9166 40.9219 26.9166H37.2774Z" fill="white"/>
</svg>
