<svg width="298" height="49" viewBox="0 0 298 49" fill="none" xmlns="http://www.w3.org/2000/svg">
<rect y="0.240723" width="298" height="48" rx="12.4876" fill="#0069FF"/>
<path d="M90.3749 24.2407H104.806" stroke="#F8F9FB" stroke-width="2" stroke-miterlimit="10"/>
<path d="M98.3591 30.4533L105.383 24.2407L98.3591 18.0281" stroke="#F8F9FB" stroke-width="2" stroke-miterlimit="10"/>
<path fill-rule="evenodd" clip-rule="evenodd" d="M129.4 14.5403C124.056 13.9747 119.268 17.8616 118.706 23.2186C118.144 28.5774 122.018 33.378 127.363 33.9417C132.707 34.5054 137.495 30.6203 138.057 25.2615C138.127 24.5928 138.128 23.9167 138.06 23.248C137.596 18.6556 133.98 15.0192 129.4 14.5403ZM129.084 29.4045C126.244 29.7858 123.631 27.7871 123.251 24.9391C122.871 22.0912 124.864 19.4717 127.704 19.0903C130.545 18.709 133.157 20.7077 133.537 23.5557C133.598 24.0088 133.598 24.4694 133.539 24.9225C133.236 27.2547 131.408 29.0913 129.084 29.4045ZM143.263 14.9253C142.01 14.929 140.996 15.9495 140.998 17.2077C140.998 17.3643 141.015 17.519 141.048 17.6719C141.261 18.744 142.26 19.4772 143.348 19.4772H149.664L139.835 32.5195C139.618 32.8051 139.675 33.214 139.96 33.4295C140.072 33.5143 140.208 33.5603 140.35 33.5622H155.767C156.855 33.5622 157.854 32.829 158.067 31.7569C158.326 30.5263 157.542 29.3197 156.315 29.06C156.162 29.0287 156.008 29.0121 155.852 29.0103H148.156L157.979 15.9771C158.198 15.6879 158.141 15.2771 157.852 15.0579C157.738 14.9713 157.601 14.9253 157.459 14.9253H143.263ZM204.871 14.9787C203.82 15.2292 203.084 16.1798 203.1 17.2629V24.8415L190.854 15.069C190.572 14.8442 190.163 14.8921 189.939 15.174C189.847 15.29 189.797 15.4337 189.797 15.5811V31.2282C189.781 32.3114 190.517 33.2619 191.568 33.5124C192.792 33.7814 194.001 33.0077 194.269 31.7808C194.304 31.6187 194.322 31.4548 194.322 31.289V23.6459L206.569 33.4185C206.85 33.6432 207.259 33.5953 207.484 33.3135C207.575 33.1974 207.625 33.0537 207.625 32.9064V17.2003C207.625 15.944 206.613 14.9253 205.36 14.9253C205.194 14.9253 205.031 14.9437 204.871 14.9787ZM172.985 19.0424C178.166 19.0424 182.035 21.7872 182.035 24.2428C182.035 26.6984 178.164 29.4432 172.985 29.4432C167.806 29.4432 163.935 26.6984 163.935 24.2428C163.935 21.7872 167.806 19.0424 172.985 19.0424ZM172.983 14.4905C165.486 14.4905 159.408 18.8564 159.408 24.241C159.408 29.6255 165.486 33.9932 172.983 33.9932C180.481 33.9932 186.558 29.6274 186.558 24.241C186.558 18.8545 180.481 14.4905 172.983 14.4905Z" fill="#F8F9FB"/>
</svg>
