<svg width="118" height="21" viewBox="0 0 118 21" fill="none" xmlns="http://www.w3.org/2000/svg">
<path d="M0.138298 10.3672H14.5693" stroke="#F8F9FB" stroke-width="2" stroke-miterlimit="10"/>
<path d="M8.12259 16.5797L15.1469 10.3671L8.12259 4.15454" stroke="#F8F9FB" stroke-width="2" stroke-miterlimit="10"/>
<path fill-rule="evenodd" clip-rule="evenodd" d="M39.1634 0.666724C33.8191 0.101188 29.0314 3.9881 28.4692 9.34504C27.907 14.7038 31.7816 19.5044 37.126 20.0681C42.4703 20.6318 47.258 16.7467 47.8202 11.388C47.89 10.7193 47.8918 10.0432 47.8239 9.37451C47.3591 4.78206 43.7435 1.14568 39.1634 0.666724ZM38.8474 15.5309C36.0071 15.9123 33.3947 13.9135 33.0144 11.0656C32.6341 8.21765 34.6274 5.59813 37.4677 5.2168C40.308 4.83548 42.9204 6.8342 43.3007 9.68215C43.3614 10.1353 43.3614 10.5958 43.3026 11.049C42.9994 13.3812 41.1714 15.2178 38.8474 15.5309ZM53.0267 1.05173C51.7738 1.05542 50.7597 2.07596 50.7615 3.33414C50.7615 3.49072 50.778 3.64546 50.8111 3.79836C51.0242 4.87048 52.0236 5.60365 53.1112 5.60365H59.4275L49.5986 18.646C49.3818 18.9315 49.4387 19.3405 49.7235 19.556C49.8356 19.6407 49.9715 19.6868 50.113 19.6886H65.5305C66.6182 19.6886 67.6176 18.9555 67.8307 17.8833C68.0897 16.6528 67.3053 15.4462 66.078 15.1865C65.9255 15.1551 65.7712 15.1386 65.6151 15.1367H57.9191L67.7425 2.10359C67.9611 1.81438 67.9042 1.40358 67.6157 1.18437C67.5018 1.09778 67.3641 1.05173 67.2226 1.05173H53.0267ZM114.635 1.10515C113.584 1.35568 112.847 2.30623 112.864 3.3894V10.968L100.617 1.19542C100.336 0.970677 99.9261 1.01857 99.702 1.30042C99.6101 1.41647 99.5605 1.56016 99.5605 1.70753V17.3547C99.544 18.4378 100.281 19.3884 101.332 19.6389C102.555 19.9079 103.764 19.1342 104.032 17.9073C104.067 17.7452 104.086 17.5812 104.086 17.4154V9.77241L116.332 19.545C116.613 19.7697 117.023 19.7218 117.247 19.44C117.339 19.3239 117.388 19.1802 117.388 19.0328V3.32677C117.388 2.07043 116.376 1.05173 115.123 1.05173C114.958 1.05173 114.794 1.07015 114.635 1.10515ZM82.7486 5.16891C87.9294 5.16891 91.7985 7.9137 91.7985 10.3693C91.7985 12.8248 87.9275 15.5696 82.7486 15.5696C77.5696 15.5696 73.6986 12.8248 73.6986 10.3693C73.6986 7.9137 77.5696 5.16891 82.7486 5.16891ZM82.7467 0.616987C75.2492 0.616987 69.1718 4.98285 69.1718 10.3674C69.1718 15.752 75.2492 20.1197 82.7467 20.1197C90.2442 20.1197 96.3216 15.7538 96.3216 10.3674C96.3216 4.98101 90.2442 0.616987 82.7467 0.616987Z" fill="#F8F9FB"/>
</svg>
