<svg width="36" height="36" viewBox="0 0 36 36" fill="none" xmlns="http://www.w3.org/2000/svg">
<path d="M18 36C27.9411 36 36 27.9411 36 18C36 8.05887 27.9411 0 18 0C8.05887 0 0 8.05887 0 18C0 27.9411 8.05887 36 18 36Z" fill="url(#paint0_linear_18_132)"/>
<path fill-rule="evenodd" clip-rule="evenodd" d="M8.13818 17.8052C13.3838 15.5271 16.8759 14.0134 18.6294 13.279C23.6203 11.1957 24.6694 10.836 25.3438 10.821C25.4937 10.821 25.8234 10.851 26.0483 11.0309C26.2281 11.1807 26.2731 11.3756 26.303 11.5255C26.333 11.6753 26.363 11.9901 26.333 12.2299C26.0632 15.0775 24.8942 21.9867 24.2947 25.1641C24.0399 26.513 23.5453 26.9626 23.0657 27.0076C22.0166 27.0975 21.2223 26.3181 20.2181 25.6587C18.6294 24.6245 17.7452 23.9801 16.2015 22.9609C14.4179 21.7919 15.572 21.1474 16.5911 20.0983C16.8609 19.8285 21.4621 15.632 21.552 15.2573C21.567 15.2124 21.567 15.0325 21.4621 14.9426C21.3572 14.8527 21.2073 14.8827 21.0874 14.9126C20.9225 14.9426 18.4046 16.6212 13.5037 19.9335C12.7843 20.428 12.1398 20.6678 11.5553 20.6529C10.9109 20.6379 9.6819 20.2932 8.75267 19.9934C7.62861 19.6337 6.72936 19.4389 6.80429 18.8094C6.84926 18.4797 7.29888 18.1499 8.13818 17.8052Z" fill="white"/>
<defs>
<linearGradient id="paint0_linear_18_132" x1="18.5845" y1="0.0344713" x2="18.5845" y2="36.0045" gradientUnits="userSpaceOnUse">
<stop stop-color="#2AABEE"/>
<stop offset="1" stop-color="#229ED9"/>
</linearGradient>
</defs>
</svg>
