<svg width="298" height="49" viewBox="0 0 298 49" fill="none" xmlns="http://www.w3.org/2000/svg">
<rect y="0.240723" width="298" height="48" rx="12.4876" fill="url(#paint0_linear_18_673)"/>
<path d="M63.9891 24.2405H78.4202" stroke="#F8F9FB" stroke-width="2" stroke-miterlimit="10"/>
<path d="M71.9734 30.4533L78.9977 24.2407L71.9734 18.0281" stroke="#F8F9FB" stroke-width="2" stroke-miterlimit="10"/>
<path d="M96.598 32.3025L92.2659 16.1785H95.0736L98.4423 28.6124L101.972 16.1785H104.619L108.229 28.6928L111.518 16.1785H114.406L110.074 32.3025H106.785L103.336 20.2695L99.8863 32.3025H96.598Z" fill="#F8F9FB"/>
<path d="M116.331 16.1785H119.058V32.3025H116.331V16.1785Z" fill="#F8F9FB"/>
<path d="M124.835 29.8154H131.412V32.3025H122.188V16.1785H124.835V29.8154Z" fill="#F8F9FB"/>
<path d="M139.674 16.1785C141.92 16.1785 143.765 16.9804 145.21 18.5049C146.654 20.1088 147.456 22.0342 147.456 24.2803C147.456 26.5263 146.654 28.4517 145.21 29.9761C143.765 31.5801 141.92 32.3025 139.674 32.3025H133.337V16.1785H139.674ZM139.674 29.8154C141.199 29.8154 142.482 29.334 143.364 28.291C144.408 27.2479 144.889 25.8842 144.889 24.2803C144.889 22.6763 144.408 21.3922 143.364 20.3499C142.482 19.3068 141.199 18.7459 139.674 18.7459H135.984V29.8162H139.674V29.8154Z" fill="#F8F9FB"/>
<path d="M161.654 27.7301C161.654 29.0134 161.173 30.1368 160.29 31.0191C159.328 31.9015 158.205 32.3025 156.841 32.3025H149.943V16.1785H156.28C157.643 16.1785 158.767 16.6598 159.649 17.4618C160.612 18.3441 161.013 19.3872 161.013 20.6705C161.013 22.1146 160.451 23.1576 159.409 23.9596C160.853 24.6812 161.655 26.0449 161.655 27.7301H161.654ZM152.59 18.6656V22.9174H156.36C157.484 22.9174 158.366 22.035 158.366 20.8321C158.366 19.6291 157.484 18.6664 156.36 18.6664H152.59V18.6656ZM156.841 29.8957C158.044 29.8957 159.007 28.8527 159.007 27.5693C159.007 26.286 158.044 25.3233 156.841 25.3233H152.59V29.8957H156.841Z" fill="#F8F9FB"/>
<path d="M166.869 29.8154H174.008V32.3025H164.222V16.1785H173.848V18.7459H166.869V22.9174H173.286V25.4037H166.869V29.8154Z" fill="#F8F9FB"/>
<path d="M185.559 32.3025L182.19 26.4467H178.981V32.3025H176.415V16.1785H182.832C184.276 16.1785 185.559 16.6598 186.522 17.7029C187.485 18.7459 188.047 19.9489 188.047 21.393C188.047 23.3987 186.763 25.3233 184.838 26.0457L188.528 32.3025H185.559ZM178.981 18.6656V24.1203H182.832C184.276 24.1203 185.319 22.9174 185.319 21.393C185.319 19.8685 184.196 18.6656 182.832 18.6656H178.981Z" fill="#F8F9FB"/>
<path d="M199.678 32.3025L196.308 26.4467H193.18V32.3025H190.533V16.1785H197.031C198.475 16.1785 199.678 16.6598 200.64 17.7029C201.683 18.6656 202.165 19.9489 202.165 21.393C202.165 23.3987 200.881 25.3233 198.956 26.0457L202.646 32.3025H199.678ZM193.18 18.6656V24.1203H196.95C198.394 24.1203 199.517 22.9174 199.517 21.393C199.517 19.8685 198.393 18.6656 196.95 18.6656H193.18Z" fill="#F8F9FB"/>
<path d="M204.571 16.1785H207.219V32.3025H204.571V16.1785Z" fill="#F8F9FB"/>
<path d="M212.994 29.8154H220.133V32.3025H210.347V16.1785H220.053V18.7459H212.994V22.9174H219.492V25.4037H212.994V29.8154Z" fill="#F8F9FB"/>
<path d="M221.978 28.6926L224.304 27.3289C224.946 29.1739 226.31 30.0563 228.315 30.0563C230.32 30.0563 231.284 29.1739 231.284 27.8906C231.284 27.2485 231.043 26.7672 230.482 26.4466C230 26.0456 229.038 25.7249 227.674 25.2436C226.07 24.8426 225.347 24.522 224.225 23.7995C223.182 23.0779 222.7 22.0349 222.7 20.5104C222.7 19.1468 223.182 18.0233 224.225 17.141C225.188 16.339 226.471 15.8577 227.915 15.8577C230.482 15.8577 232.487 17.2214 233.53 19.4674L231.284 20.7507C230.642 19.2263 229.439 18.5047 227.915 18.5047C226.311 18.5047 225.348 19.2263 225.348 20.5104C225.348 21.7134 226.15 22.2751 228.637 22.9976C229.199 23.2378 229.68 23.3985 229.921 23.4789C230.241 23.5593 230.642 23.7192 231.124 23.9603C231.685 24.121 232.086 24.3612 232.327 24.6023C233.209 25.2444 234.011 26.2866 234.011 27.8914C234.011 29.3355 233.449 30.5384 232.407 31.4208C231.364 32.2228 230 32.6237 228.236 32.6237C225.107 32.6237 222.861 31.1797 221.979 28.6934L221.978 28.6926Z" fill="#F8F9FB"/>
<defs>
<linearGradient id="paint0_linear_18_673" x1="0" y1="24.2407" x2="298" y2="24.2407" gradientUnits="userSpaceOnUse">
<stop stop-color="#BF1F81"/>
<stop offset="1" stop-color="#4D327C"/>
</linearGradient>
</defs>
</svg>
