<svg width="171" height="18" viewBox="0 0 171 18" fill="none" xmlns="http://www.w3.org/2000/svg">
<path d="M0.0438232 9.36694H14.4748" stroke="#F8F9FB" stroke-width="2" stroke-miterlimit="10"/>
<path d="M8.02812 15.5797L15.0524 9.36714L8.02812 3.15454" stroke="#F8F9FB" stroke-width="2" stroke-miterlimit="10"/>
<path d="M32.6527 17.4289L28.3205 1.30493H31.1283L34.4969 13.7389L38.0271 1.30493H40.6741L44.2838 13.8192L47.5729 1.30493H50.461L46.1289 17.4289H42.8398L39.3908 5.396L35.941 17.4289H32.6527Z" fill="#F8F9FB"/>
<path d="M52.3856 1.30493H55.113V17.4289H52.3856V1.30493Z" fill="#F8F9FB"/>
<path d="M60.8892 14.9418H67.4666V17.4289H58.2422V1.30493H60.8892V14.9418Z" fill="#F8F9FB"/>
<path d="M75.7291 1.30493C77.9751 1.30493 79.8201 2.10691 81.2642 3.63132C82.7082 5.23529 83.5102 7.16069 83.5102 9.40672C83.5102 11.6527 82.7082 13.5781 81.2642 15.1026C79.8201 16.7065 77.9751 17.4289 75.7291 17.4289H69.392V1.30493H75.7291ZM75.7291 14.9418C77.2535 14.9418 78.5368 14.4605 79.4192 13.4174C80.4622 12.3744 80.9436 11.0107 80.9436 9.40672C80.9436 7.80275 80.4622 6.51862 79.4192 5.47636C78.5368 4.4333 77.2535 3.8724 75.7291 3.8724H72.039V14.9426H75.7291V14.9418Z" fill="#F8F9FB"/>
<path d="M97.7088 12.8565C97.7088 14.1399 97.2275 15.2633 96.3451 16.1456C95.3824 17.028 94.2598 17.4289 92.8961 17.4289H85.9973V1.30493H92.3344C93.6981 1.30493 94.8215 1.78628 95.7039 2.58826C96.6666 3.4706 97.0676 4.51366 97.0676 5.79699C97.0676 7.24104 96.5059 8.2841 95.4636 9.08608C96.9076 9.80771 97.7096 11.1714 97.7096 12.8565H97.7088ZM88.6443 3.79204V8.04383H92.4148C93.5382 8.04383 94.4205 7.16149 94.4205 5.95852C94.4205 4.75554 93.5382 3.79284 92.4148 3.79284H88.6443V3.79204ZM92.8961 15.0222C94.0991 15.0222 95.0618 13.9791 95.0618 12.6958C95.0618 11.4125 94.0991 10.4498 92.8961 10.4498H88.6443V15.0222H92.8961Z" fill="#F8F9FB"/>
<path d="M102.923 14.9418H110.062V17.4289H100.276V1.30493H109.902V3.8724H102.923V8.04383H109.341V10.5301H102.923V14.9418Z" fill="#F8F9FB"/>
<path d="M121.614 17.4289L118.245 11.5732H115.036V17.4289H112.469V1.30493H118.887C120.331 1.30493 121.614 1.78628 122.577 2.82934C123.539 3.8724 124.101 5.07537 124.101 6.51942C124.101 8.52518 122.818 10.4498 120.892 11.1722L124.582 17.4289H121.614ZM115.036 3.79204V9.2468H118.887C120.331 9.2468 121.374 8.04383 121.374 6.51942C121.374 4.99501 120.25 3.79204 118.887 3.79204H115.036Z" fill="#F8F9FB"/>
<path d="M135.732 17.4289L132.363 11.5732H129.234V17.4289H126.587V1.30493H133.085C134.529 1.30493 135.732 1.78628 136.695 2.82934C137.738 3.79204 138.219 5.07537 138.219 6.51942C138.219 8.52518 136.936 10.4498 135.011 11.1722L138.701 17.4289H135.732ZM129.234 3.79204V9.2468H133.005C134.449 9.2468 135.572 8.04383 135.572 6.51942C135.572 4.99501 134.448 3.79204 133.005 3.79204H129.234Z" fill="#F8F9FB"/>
<path d="M140.625 1.30493H143.273V17.4289H140.625V1.30493Z" fill="#F8F9FB"/>
<path d="M149.049 14.9418H156.188V17.4289H146.402V1.30493H156.108V3.8724H149.049V8.04383H155.546V10.5301H149.049V14.9418Z" fill="#F8F9FB"/>
<path d="M158.033 13.8191L160.359 12.4554C161.001 14.3004 162.365 15.1827 164.37 15.1827C166.375 15.1827 167.338 14.3004 167.338 13.0171C167.338 12.375 167.098 11.8937 166.536 11.573C166.055 11.172 165.092 10.8514 163.729 10.3701C162.125 9.96906 161.402 9.64843 160.28 8.926C159.236 8.20438 158.755 7.16132 158.755 5.63691C158.755 4.27322 159.236 3.1498 160.28 2.26746C161.242 1.46548 162.526 0.984131 163.97 0.984131C166.536 0.984131 168.542 2.34782 169.585 4.59385L167.339 5.87718C166.697 4.35278 165.494 3.63115 163.97 3.63115C162.366 3.63115 161.403 4.35278 161.403 5.63691C161.403 6.83988 162.205 7.40159 164.692 8.12402C165.254 8.36429 165.735 8.52501 165.975 8.60537C166.296 8.68573 166.697 8.84564 167.178 9.08672C167.74 9.24744 168.141 9.48771 168.381 9.72879C169.264 10.3709 170.066 11.4131 170.066 13.0179C170.066 14.4619 169.504 15.6649 168.462 16.5472C167.419 17.3492 166.055 17.7502 164.29 17.7502C161.162 17.7502 158.916 16.3062 158.033 13.8199L158.033 13.8191Z" fill="#F8F9FB"/>
</svg>
